# File created by Blade
# Date/Time:  Thu Jan 22 16:31:11 2015
# Frame Rate: 120.000 fps
#------------------------------------------------------
:FULLY-SPECIFIED
:DEGREES
1157
root 2.136687 37.348221 2.571670 -3.111154 -2.675355 2.686613
RightUpLeg 12.438713 1.477675 -2.684131
RightLeg -6.376201 -0.000000 0.000000
RightFoot -12.164059 -17.028361 18.501220
RightToeBase 14.867638 -0.000000 -0.000000
LeftUpLeg 9.365515 -2.919342 -1.605896
LeftLeg -1.428345 -0.000000 0.000000
LeftFoot -8.699123 13.060648 -17.107816
LeftToeBase 9.707219 -0.000000 -0.000000
Spine 9.230023 -5.100140 -3.668004
RightShoulder -7.051568 -10.727621 -25.691673
RightArm 8.690102 24.200797 27.923207
RightForeArm 8.278076 0.000000 13.981279
RightHand 1.830370 -0.000000 -4.035387
RightHandThumb1 -24.326973 -0.000000 -32.862282
LeftShoulder -25.697279 30.340549 16.940018
LeftArm 41.564633 -50.464232 -49.860463
LeftForeArm 35.079597 -0.000000 2.480984
LeftHand -20.140698 0.000000 4.073498
LeftHandThumb1 -26.253704 0.000000 33.147579
Head -10.756309 12.970183 5.201510
1158
root 2.123654 37.350805 2.558525 -3.003287 -2.689165 2.649653
RightUpLeg 12.282841 1.363128 -2.651559
RightLeg -6.327584 -0.000000 0.000000
RightFoot -12.098759 -16.903655 18.472104
RightToeBase 14.825009 -0.000000 -0.000000
LeftUpLeg 9.282333 -2.896642 -1.535022
LeftLeg -1.513765 -0.000000 0.000000
LeftFoot -8.650834 13.042811 -17.169787
LeftToeBase 9.727599 -0.000000 -0.000000
Spine 9.131092 -5.069322 -3.664580
RightShoulder -7.028256 -10.645662 -25.676098
RightArm 8.626051 24.188454 27.903147
RightForeArm 8.220967 -0.000000 13.962189
RightHand 1.861186 -0.000000 -4.092624
RightHandThumb1 -24.326973 -0.000000 -32.862282
LeftShoulder -25.663599 30.317221 17.009112
LeftArm 41.600281 -50.496856 -49.877307
LeftForeArm 35.162212 0.000000 2.456387
LeftHand -20.161044 -0.000000 3.857663
LeftHandThumb1 -26.253704 0.000000 33.147579
Head -10.783681 12.991467 5.329448
1159
root 2.111289 37.352652 2.548586 -2.918879 -2.718645 2.613124
RightUpLeg 12.157616 1.261133 -2.615827
RightLeg -6.285776 -0.000000 0.000000
RightFoot -12.062557 -16.790497 18.450155
RightToeBase 14.847847 -0.000000 -0.000000
LeftUpLeg 9.237354 -2.806213 -1.462379
LeftLeg -1.614595 -0.000000 0.000000
LeftFoot -8.581730 12.999664 -17.168239
LeftToeBase 9.763932 -0.000000 -0.000000
Spine 9.056436 -5.010273 -3.655553
RightShoulder -7.020967 -10.614001 -25.658704
RightArm 8.571904 24.120437 27.851467
RightForeArm 8.187993 -0.000000 13.929733
RightHand 1.841543 -0.000000 -3.942065
RightHandThumb1 -24.326973 -0.000000 -32.862282
LeftShoulder -25.615509 30.272950 17.084489
LeftArm 41.580204 -50.480491 -49.819311
LeftForeArm 35.219498 -0.000000 2.394378
LeftHand -20.012881 -0.000000 3.687093
LeftHandThumb1 -26.253704 0.000000 33.147579
Head -10.812450 12.940145 5.427470
1160
root 2.100199 37.354690 2.536455 -2.810197 -2.749593 2.577414
RightUpLeg 12.001190 1.160383 -2.582350
RightLeg -6.239002 -0.000000 0.000000
RightFoot -12.011884 -16.683010 18.421157
RightToeBase 14.797957 -0.000000 -0.000000
LeftUpLeg 9.154533 -2.717430 -1.392511
LeftLeg -1.695897 -0.000000 0.000000
LeftFoot -8.533951 12.974534 -17.108549
LeftToeBase 9.861745 -0.000000 -0.000000
Spine 8.958881 -4.960208 -3.643662
RightShoulder -7.013271 -10.645023 -25.642752
RightArm 8.576730 24.179081 27.841061
RightForeArm 8.110558 -0.000000 13.872890
RightHand 1.890522 -0.000000 -3.921628
RightHandThumb1 -24.326973 -0.000000 -32.862282
LeftShoulder -25.610492 30.268308 17.114112
LeftArm 41.634806 -50.476226 -49.799178
LeftForeArm 35.315621 0.000000 2.331892
LeftHand -19.885808 -0.000000 3.469461
LeftHandThumb1 -26.253704 0.000000 33.147579
Head -10.856622 12.917541 5.508886
